<?xml version="1.0" encoding="UTF-8" standalone="no"?>
<!-- Created with Inkscape (http://www.inkscape.org/) -->

<svg
   width="24.077087mm"
   height="24.077087mm"
   viewBox="0 0 24.077087 24.077087"
   version="1.1"
   id="svg5"
   inkscape:export-filename="Hoje.svg"
   inkscape:export-xdpi="96"
   inkscape:export-ydpi="96"
   xmlns:inkscape="http://www.inkscape.org/namespaces/inkscape"
   xmlns:sodipodi="http://sodipodi.sourceforge.net/DTD/sodipodi-0.dtd"
   xmlns="http://www.w3.org/2000/svg"
   xmlns:svg="http://www.w3.org/2000/svg">
  <sodipodi:namedview
     id="namedview7"
     pagecolor="#505050"
     bordercolor="#eeeeee"
     borderopacity="1"
     inkscape:showpageshadow="0"
     inkscape:pageopacity="0"
     inkscape:pagecheckerboard="0"
     inkscape:deskcolor="#505050"
     inkscape:document-units="mm"
     showgrid="false" />
  <defs
     id="defs2" />
  <g
     inkscape:label="Layer 1"
     inkscape:groupmode="layer"
     id="layer1"
     transform="translate(-136.65459,-203.08369)">
    <g
       id="g563">
      <circle
         cx="148.69312"
         cy="215.12224"
         r="12.038542"
         fill="#52b6ff"
         id="circle545"
         style="stroke-width:0.264583" />
      <path
         d="m 148.68393,225.57328 c -1.47146,-0.001 -2.92614,-0.31184 -4.26937,-0.91199 -1.34324,-0.60019 -2.54487,-1.56486 -3.52666,-2.65989 l 1.55858,-1.30564 c 0.93054,1.0396 2.10656,1.83007 3.42101,2.2995 1.31445,0.46942 2.72555,0.60285 4.10483,0.38814 1.37924,-0.21471 2.68282,-0.7707 3.79206,-1.6174 1.10921,-0.84672 1.98882,-1.95717 2.5587,-3.23032 0.56989,-1.27315 0.81198,-2.66851 0.70419,-4.059 -0.10776,-1.39049 -0.562,-2.73198 -1.32127,-3.90226 -0.75931,-1.17031 -1.79954,-2.13222 -3.02599,-2.79821 -1.22648,-0.66598 -2.60019,-0.98837 -3.99608,-0.98835 v -2.11667 c 2.77421,0 5.4348,1.10109 7.39648,3.06105 1.96167,1.95995 3.06374,4.6182 3.06374,7.39 0,2.7718 -1.10207,5.43004 -3.06374,7.38999 -1.96168,1.95996 -4.62227,3.06105 -7.39648,3.06105 z"
         fill="#ffffff"
         id="path547"
         style="stroke-width:0.264583" />
      <path
         d="m 144.25028,212.71897 v 1.42209 h 1.65991 v -1.42209 h 0.51367 v 3.32931 h -0.51367 v -1.41259 h -1.65991 v 1.41259 h -0.51366 v -3.32931 z m 5.37324,2.07844 c 0,0.25365 -0.0571,0.47879 -0.17122,0.67537 -0.11099,0.19341 -0.26318,0.34563 -0.45659,0.45659 -0.19026,0.11097 -0.40428,0.16648 -0.64209,0.16648 -0.23781,0 -0.45342,-0.0555 -0.64683,-0.16648 -0.19341,-0.11096 -0.34721,-0.26318 -0.46135,-0.45659 -0.11097,-0.19658 -0.16648,-0.42172 -0.16648,-0.67537 0,-0.25366 0.0555,-0.47721 0.16648,-0.67062 0.11414,-0.19658 0.26794,-0.35038 0.46135,-0.46135 0.19341,-0.11097 0.40902,-0.16648 0.64683,-0.16648 0.23781,0 0.45183,0.0555 0.64209,0.16648 0.19341,0.11097 0.3456,0.26477 0.45659,0.46135 0.11414,0.19341 0.17122,0.41696 0.17122,0.67062 z m -0.49941,0 c 0.003,-0.16807 -0.0301,-0.31549 -0.0999,-0.44233 -0.0666,-0.12999 -0.15853,-0.22987 -0.27585,-0.29964 -0.11732,-0.0729 -0.24889,-0.10938 -0.39476,-0.10938 -0.14584,0 -0.27903,0.0365 -0.39952,0.10938 -0.11732,0.0698 -0.21085,0.16965 -0.28062,0.29964 -0.0666,0.12684 -0.0983,0.27426 -0.0951,0.44233 -0.003,0.16489 0.0285,0.31231 0.0951,0.44233 0.0698,0.12681 0.1633,0.22669 0.28062,0.29964 0.12049,0.0729 0.25368,0.10938 0.39952,0.10938 0.14587,0 0.27744,-0.0365 0.39476,-0.10938 0.11732,-0.0729 0.20929,-0.17283 0.27585,-0.29964 0.0698,-0.13002 0.10306,-0.27744 0.0999,-0.44233 z m 1.58494,1.36501 c 0,0.16806 -0.038,0.3139 -0.11417,0.43757 -0.0729,0.12366 -0.17439,0.21878 -0.30438,0.28538 -0.13001,0.0666 -0.27585,0.0999 -0.43756,0.0999 l -0.1855,-0.37574 c 0.19341,0 0.33292,-0.0507 0.41854,-0.15221 0.0888,-0.10144 0.13317,-0.2394 0.13317,-0.41378 v -2.49222 h 0.4899 z m -0.23307,-3.18185 c -0.11097,0 -0.19341,-0.0285 -0.24731,-0.0856 -0.0539,-0.0571 -0.0809,-0.13161 -0.0809,-0.22355 0,-0.0793 0.027,-0.1506 0.0809,-0.21402 0.0539,-0.0634 0.13634,-0.0951 0.24731,-0.0951 0.11099,0 0.19343,0.0285 0.24733,0.0856 0.0539,0.0571 0.0809,0.13161 0.0809,0.22355 0,0.0793 -0.027,0.1506 -0.0809,0.21402 -0.0539,0.0634 -0.13634,0.0951 -0.24733,0.0951 z m 3.0758,2.73955 h -0.005 c -0.10146,0.0983 -0.24098,0.18547 -0.41854,0.26156 -0.17756,0.0761 -0.36306,0.11417 -0.55647,0.11417 -0.26001,0 -0.48988,-0.0539 -0.68964,-0.16171 -0.19658,-0.111 -0.35039,-0.2616 -0.46135,-0.45183 -0.11097,-0.19344 -0.16648,-0.41222 -0.16648,-0.65635 0,-0.27903 0.0587,-0.51684 0.176,-0.71343 0.11732,-0.19976 0.27268,-0.35197 0.46609,-0.45661 0.19341,-0.1078 0.40429,-0.16169 0.63257,-0.16169 0.20928,0 0.39952,0.0523 0.57073,0.15695 0.17124,0.10147 0.30758,0.24257 0.40905,0.42328 0.10147,0.18074 0.15219,0.39161 0.15219,0.63259 l -0.005,0.20926 h -1.91196 c 0.0285,0.22513 0.12049,0.40428 0.27585,0.53745 0.15854,0.12999 0.3583,0.195 0.59928,0.195 0.17439,0 0.31549,-0.0317 0.42328,-0.0951 0.10782,-0.0666 0.19659,-0.13002 0.26636,-0.19027 z m -1.02258,-1.77406 c -0.18706,0 -0.35037,0.0444 -0.48988,0.13316 -0.13951,0.0856 -0.23146,0.23463 -0.27585,0.4471 h 1.39829 v -0.0333 c -0.009,-0.1078 -0.046,-0.20291 -0.10938,-0.28536 -0.0602,-0.0824 -0.13634,-0.14586 -0.22831,-0.19026 -0.0919,-0.0476 -0.19023,-0.0713 -0.29487,-0.0713 z"
         fill="#ffffff"
         id="path549"
         style="stroke-width:0.264583" />
    </g>
  </g>
</svg>
