<?xml version="1.0" encoding="UTF-8" standalone="no"?>
<!-- Created with Inkscape (http://www.inkscape.org/) -->

<svg
   width="46.810616mm"
   height="41.982239mm"
   viewBox="0 0 46.810616 41.982239"
   version="1.1"
   id="svg5"
   inkscape:export-filename="Logo.png"
   inkscape:export-xdpi="96"
   inkscape:export-ydpi="96"
   xmlns:inkscape="http://www.inkscape.org/namespaces/inkscape"
   xmlns:sodipodi="http://sodipodi.sourceforge.net/DTD/sodipodi-0.dtd"
   xmlns="http://www.w3.org/2000/svg"
   xmlns:svg="http://www.w3.org/2000/svg">
  <sodipodi:namedview
     id="namedview7"
     pagecolor="#505050"
     bordercolor="#eeeeee"
     borderopacity="1"
     inkscape:showpageshadow="0"
     inkscape:pageopacity="0"
     inkscape:pagecheckerboard="0"
     inkscape:deskcolor="#505050"
     inkscape:document-units="mm"
     showgrid="false" />
  <defs
     id="defs2" />
  <g
     inkscape:label="Layer 1"
     inkscape:groupmode="layer"
     id="layer1"
     transform="translate(-78.581491,-114.94323)">
    <g
       id="g266"
       inkscape:export-filename="Logo.png"
       inkscape:export-xdpi="108.90321"
       inkscape:export-ydpi="108.90321"
       transform="translate(61.820351,62.167117)">
      <ellipse
         cx="40.992508"
         cy="75.091415"
         rx="18.82185"
         ry="2.0675521"
         fill="#e6e7e8"
         id="ellipse132"
         style="stroke-width:0.264583" />
      <path
         d="m 29.014925,57.909349 v 4.063815 l 4.776761,1.92495 v -5.988765 z"
         fill="#8fc549"
         id="path134"
         style="stroke-width:0.264583" />
      <path
         d="m 35.431468,55.699205 v 9.268354 l 4.776761,1.92495 V 55.699205 Z"
         fill="#e75766"
         id="path136"
         style="stroke-width:0.264583" />
      <path
         d="m 41.990753,52.776115 v 14.82934 l 4.776523,1.92495 v -16.75429 z"
         fill="#8fc549"
         id="path138"
         style="stroke-width:0.264583" />
      <path
         d="m 18.74851,70.813713 v 5.061956 l 9.767385,-7.913741 18.465429,7.913741 9.553575,-7.129489 0.855398,2.067533 2.352675,-7.200767 -7.272073,1.212003 1.925108,0.85553 -7.414683,5.418429 -18.465429,-8.056325 z"
         fill="#126ba5"
         id="path140"
         style="stroke-width:0.264583" />
      <path
         d="m 27.803292,82.913215 -2.573443,-0.109538 c -0.121682,0 -0.523213,0.729986 -1.204621,2.190221 -0.681382,1.4478 -1.271508,2.853267 -1.77038,4.216136 -0.498872,1.362604 -0.748321,2.348177 -0.748321,2.956718 0,0.596107 0.188595,0.894292 0.565811,0.894292 0.389361,0 0.876062,-0.395552 1.460103,-1.186392 0.06085,-0.07303 0.121682,-0.109537 0.18251,-0.109537 0.06085,0 0.09128,0.05477 0.09128,0.164306 0,0.109538 -0.0852,0.310356 -0.255535,0.602192 -0.158168,0.2921 -0.371104,0.608542 -0.63881,0.949325 -0.267679,0.328348 -0.614468,0.620448 -1.040315,0.876035 -0.425873,0.267494 -0.863917,0.401373 -1.314106,0.401373 -0.669237,0 -1.003856,-0.462227 -1.003856,-1.386946 0,-1.143793 0.577983,-3.090598 1.733894,-5.840677 0.827405,-1.934633 1.587897,-3.540654 2.281449,-4.818327 h -0.237278 l -1.879891,-0.03651 c -1.046427,0 -1.959001,0.133879 -2.737723,0.401637 -0.425873,0.14605 -0.766572,0.364861 -1.022093,0.656961 -0.243353,0.279929 -0.36503,0.620712 -0.36503,1.022085 l 0.146013,0.766498 c 0,0.121708 -0.06084,0.182562 -0.182515,0.182562 -0.158181,0 -0.28594,-0.152135 -0.383283,-0.456141 -0.09734,-0.316442 -0.14601,-0.590286 -0.14601,-0.821531 0,-0.571765 0.133844,-1.058334 0.401531,-1.459971 0.26769,-0.401638 0.63272,-0.705644 1.095087,-0.912548 0.876088,-0.389467 1.843405,-0.5842 2.902003,-0.5842 1.058571,0 2.257081,0.06694 3.595529,0.200819 1.338447,0.121708 2.555213,0.182562 3.650297,0.182562 1.095084,0 1.806892,-0.170392 2.135425,-0.51091 0.03651,0.08493 0.05477,0.170127 0.05477,0.255323 0,0.401637 -0.255534,0.724164 -0.766577,0.967316 -0.511043,0.231246 -1.186339,0.346869 -2.025915,0.346869 z m 1.083257,4.106598 0.930831,0.01826 h 0.18251 c -0.18251,0.133879 -0.444104,0.529167 -0.784808,1.186392 -0.328533,0.65696 -0.577955,1.155964 -0.748321,1.496483 -0.158167,0.328613 -0.340677,0.778669 -0.547528,1.350698 -0.194681,0.559594 -0.292047,1.016 -0.292047,1.368954 0,0.35269 0.121681,0.529167 0.365045,0.529167 0.158168,-0.01217 0.37719,-0.121708 0.65704,-0.328613 0.292047,-0.21881 0.529299,-0.44397 0.711809,-0.675216 0.19468,-0.243417 0.401531,-0.547423 0.620553,-0.912548 0.231193,-0.377296 0.425874,-0.699559 0.584068,-0.967317 0.170339,-0.279929 0.267679,-0.419894 0.292021,-0.419894 0.08517,0 0.12774,0.115623 0.12774,0.346869 0,0.219075 -0.06083,0.432065 -0.182509,0.638704 -0.523214,0.863865 -0.955146,1.527175 -1.29585,1.989402 -0.340704,0.462492 -0.754406,0.888471 -1.241107,1.277673 -0.474531,0.377296 -0.906489,0.565944 -1.29585,0.565944 -0.693552,0 -1.040342,-0.511175 -1.040342,-1.53326 0,-0.693473 0.133853,-1.478227 0.401532,-2.354527 0.267705,-0.876036 0.663151,-1.721644 1.186365,-2.536825 -0.425873,0.340783 -0.851747,0.51091 -1.27762,0.51091 -0.133853,0 -0.273764,-0.03043 -0.419788,-0.09128 -0.863891,1.703652 -1.332362,2.555346 -1.40536,2.555346 -0.06083,0 -0.09126,-0.09737 -0.09126,-0.2921 0,-0.206905 0.073,-0.486569 0.219022,-0.839523 0.158168,-0.365125 0.322447,-0.71173 0.492786,-1.040342 0.18251,-0.328613 0.27985,-0.51091 0.292021,-0.547423 -0.438044,-0.219075 -0.65704,-0.572029 -0.65704,-1.058598 0,-0.243417 0.073,-0.462492 0.218996,-0.657225 0.158194,-0.194469 0.371131,-0.291835 0.638809,-0.291835 0.267706,0 0.486702,0.0852 0.657067,0.255323 -0.02434,0.07303 -0.03651,0.182562 -0.03651,0.328612 0,0.328613 0.115597,0.590021 0.34679,0.784754 0.243337,0.182563 0.535358,0.273844 0.876061,0.273844 0.09734,0 0.170339,-0.0061 0.219023,-0.01826 0.425873,-0.608277 0.857805,-0.912548 1.295849,-0.912548 z m 8.704818,0.03651 0.912575,0.01826 h 0.182509 c -0.401531,0.328612 -0.894318,1.16205 -1.478359,2.500312 -0.584041,1.326356 -0.876062,2.293673 -0.876062,2.902215 0,0.316177 0.109511,0.474398 0.328507,0.474398 0.705723,0 1.606153,-1.040342 2.701237,-3.121025 0.04866,-0.0852 0.09126,-0.127794 0.127767,-0.127794 0.073,0 0.109485,0.115623 0.109485,0.346869 0,0.219075 -0.06083,0.432064 -0.18251,0.638704 -1.496615,2.518833 -2.749894,3.77825 -3.759808,3.77825 -0.65704,0 -0.985573,-0.50509 -0.985573,-1.515004 0,-0.754327 0.127767,-1.496484 0.383275,-2.226734 -1.387104,2.457979 -2.670783,3.686969 -3.851063,3.686969 -0.815234,0 -1.222851,-0.559858 -1.222851,-1.67931 0,-0.851694 0.182509,-1.715559 0.547555,-2.591594 0.37719,-0.876036 0.912574,-1.618456 1.606126,-2.226733 0.693553,-0.620448 1.454045,-0.930805 2.28145,-0.930805 0.38936,0 0.75438,0.09128 1.095084,0.273844 0.340677,0.170392 0.565785,0.450056 0.675296,0.839523 0.133852,-0.279929 0.340704,-0.523346 0.620553,-0.729985 0.27985,-0.206905 0.54147,-0.310357 0.784807,-0.310357 z m -1.514871,1.204648 c -0.121682,-0.389466 -0.407617,-0.5842 -0.857806,-0.5842 -0.803063,0 -1.581811,0.559859 -2.336191,1.679311 -0.754407,1.107281 -1.131597,2.098939 -1.131597,2.974975 0,0.377031 0.145997,0.565679 0.438018,0.565679 0.316362,0 0.687493,-0.194733 1.11334,-0.583936 0.425873,-0.401637 0.809175,-0.86995 1.149853,-1.405466 0.754406,-1.192477 1.295849,-2.074598 1.624383,-2.646363 z m 9.940686,1.423459 c 0.07302,0 0.109538,0.115623 0.109538,0.346868 0,0.231246 -0.103452,0.516996 -0.310092,0.85778 -0.194733,0.340783 -0.352954,0.602456 -0.474662,0.784754 -0.109538,0.170391 -0.304271,0.450321 -0.583936,0.839787 -0.279929,0.389202 -0.523345,0.669131 -0.73025,0.839523 -0.206639,0.170392 -0.468312,0.370946 -0.784754,0.602192 -0.535252,0.389466 -1.235075,0.5842 -2.098886,0.5842 -0.851747,0 -1.472274,-0.21299 -1.861662,-0.638969 -0.37719,-0.437885 -0.565785,-1.003829 -0.565785,-1.697302 0,-1.277673 0.450215,-2.445808 1.350619,-3.504406 0.912574,-1.070769 1.983237,-1.606021 3.212227,-1.606021 0.547687,0 0.985573,0.14605 1.314185,0.437885 0.328348,0.279929 0.492654,0.620713 0.492654,1.022086 0,0.389466 -0.109537,0.73025 -0.328348,1.022085 -0.219075,0.2921 -0.468577,0.43815 -0.748506,0.43815 -0.547423,0 -0.821267,-0.22516 -0.821267,-0.675217 0,-0.14605 0.152136,-0.286014 0.456407,-0.419893 0.121708,-0.04868 0.231246,-0.139965 0.328348,-0.273844 0.09737,-0.133879 0.14605,-0.310092 0.14605,-0.529167 0,-0.316441 -0.170392,-0.474662 -0.510911,-0.474662 -0.729985,0 -1.45415,0.529431 -2.171991,1.588029 -0.717894,1.058598 -1.076828,2.086769 -1.076828,3.084512 0,0.985573 0.431959,1.478228 1.29585,1.478228 1.204728,0 2.378684,-0.930805 3.522478,-2.792413 0.231245,-0.365125 0.419893,-0.675217 0.565943,-0.930804 0.158221,-0.255588 0.249238,-0.383381 0.273579,-0.383381 z m 7.417594,1.040341 c -0.425979,0.718079 -0.858044,1.368954 -1.295929,1.95289 -0.93689,1.216819 -1.861608,1.82536 -2.774156,1.82536 -0.499004,0 -0.8763,-0.249502 -1.131623,-0.748506 -0.243417,-0.49874 -0.365125,-1.052512 -0.365125,-1.66079 0,-1.216818 0.182562,-1.825095 0.547687,-1.825095 0.571765,0 1.100932,-0.127794 1.587765,-0.383382 0.486833,-0.267758 0.729985,-0.614362 0.729985,-1.040341 0,-0.340784 -0.194733,-0.510911 -0.583935,-0.510911 -0.839523,0 -1.770327,0.912548 -2.792413,2.737644 -0.09737,0.182563 -0.30427,0.608277 -0.620712,1.277673 -0.304271,0.65696 -0.57785,1.155965 -0.821267,1.496483 -0.231246,0.340784 -0.462491,0.511175 -0.693473,0.511175 h -1.113366 c 0.377031,-0.705908 0.930804,-2.129366 1.660789,-4.270904 0.742157,-2.153708 1.289844,-3.595687 1.642798,-4.325673 0.01217,-0.02434 0.08493,-0.182562 0.218811,-0.474398 0.14605,-0.2921 0.243416,-0.492918 0.2921,-0.602456 0.06085,-0.109537 0.170391,-0.316177 0.328612,-0.620448 0.158221,-0.304271 0.28575,-0.529431 0.383117,-0.675481 0.09737,-0.145786 0.231246,-0.35269 0.401637,-0.620448 0.170392,-0.279929 0.322527,-0.492654 0.456142,-0.638704 0.133879,-0.14605 0.2921,-0.316442 0.474662,-0.511175 0.182563,-0.206904 0.352955,-0.358775 0.511175,-0.456142 0.413544,-0.243417 0.79084,-0.365125 1.131359,-0.365125 0.669396,0 1.003829,0.304271 1.003829,0.912548 0,0.851694 -0.516996,1.983317 -1.551252,3.394869 -1.022086,1.399116 -2.17805,2.725473 -3.467894,3.978804 l -0.328348,0.912548 c 0.583936,-0.754327 1.246981,-1.411552 1.989402,-1.971146 0.742157,-0.572029 1.423459,-0.857779 2.044171,-0.857779 0.35269,0 0.626533,0.0852 0.821267,0.255587 0.206904,0.170127 0.310356,0.401373 0.310356,0.693473 0,0.669132 -0.298185,1.210734 -0.894556,1.624277 -0.583936,0.401638 -1.259152,0.663311 -2.025915,0.784755 0.109538,1.265502 0.286015,2.038085 0.529431,2.318014 0.121709,0.133879 0.273844,0.200819 0.456142,0.200819 0.182563,0 0.432065,-0.109538 0.748506,-0.328613 0.316177,-0.21881 0.571765,-0.456141 0.766498,-0.711729 0.206904,-0.267758 0.419894,-0.583935 0.638704,-0.94906 0.231246,-0.365125 0.42598,-0.681302 0.5842,-0.949061 0.170392,-0.267758 0.267759,-0.401637 0.2921,-0.401637 0.07276,0 0.109273,0.121708 0.109273,0.365125 0,0.231246 -0.06694,0.450056 -0.200554,0.65696 z M 51.645928,81.27068 c -0.681302,0 -1.873779,2.189956 -3.577166,6.570398 1.557337,-1.825096 2.652448,-3.364442 3.285331,-4.617509 0.36486,-0.657225 0.547423,-1.198562 0.547423,-1.624541 0,-0.219075 -0.0852,-0.328348 -0.255588,-0.328348 z m 4.820973,0.346604 h 4.124854 c -0.839523,0.645054 -1.995487,2.640541 -3.467893,5.986462 -0.377032,0.851959 -0.809096,1.971146 -1.29593,3.358357 -0.474397,1.375039 -0.711729,2.378868 -0.711729,3.011487 0,0.170392 0.02434,0.298185 0.07303,0.383381 h -2.354527 c 0.340784,-1.472406 1.058598,-3.516577 2.153709,-6.132512 1.460235,-3.480065 2.40321,-5.457296 2.828925,-5.931694 -1.034257,0.02434 -2.086505,0.237067 -3.157273,0.638704 -1.058598,0.389467 -1.673225,0.857779 -1.843617,1.405467 -0.01217,0.03651 -0.03651,0.05477 -0.07302,0.05477 -0.109273,0 -0.164042,-0.07911 -0.164042,-0.237332 0,-0.02434 0.01217,-0.0852 0.03651,-0.182562 0.230981,-0.669131 0.565679,-1.186392 1.003829,-1.551517 0.437885,-0.36486 0.863865,-0.590021 1.277408,-0.675216 0.425979,-0.0852 0.949061,-0.127794 1.569773,-0.127794 z m 7.104856,2.281502 c -0.59637,0.413808 -1.265502,1.472406 -2.007658,3.175794 h 1.843352 l 0.01826,0.01826 c 0,0.06085 -0.06694,0.170392 -0.200818,0.328612 -0.133879,0.145786 -0.249502,0.218811 -0.346869,0.218811 h -1.569508 c -0.961232,2.384954 -1.44198,3.91795 -1.44198,4.599516 0,0.462228 0.14605,0.693473 0.43815,0.693473 0.425715,0 0.924719,-0.365125 1.496484,-1.09511 0.133879,-0.158221 0.310356,-0.425715 0.529431,-0.80301 0.559594,-0.900378 0.851694,-1.350698 0.876035,-1.350698 0.07303,0 0.109538,0.09737 0.109538,0.2921 -0.01217,0.462491 -0.51726,1.362868 -1.515004,2.701131 -0.328348,0.43815 -0.7239,0.845873 -1.186127,1.222904 -0.462492,0.377296 -0.882386,0.565944 -1.259417,0.565944 -0.693737,0 -1.040342,-0.486834 -1.040342,-1.460236 0,-0.815181 0.194734,-1.75207 0.583936,-2.810668 v -0.01826 c -0.231246,0.425715 -0.4318,0.742157 -0.602192,0.949061 -0.158221,0.206904 -0.249502,0.310356 -0.273844,0.310356 -0.04868,0 -0.07303,-0.07303 -0.07303,-0.219075 0,-0.158221 0.07911,-0.407723 0.237332,-0.748242 0.170391,-0.340783 0.395552,-0.785018 0.675216,-1.332441 0.2921,-0.547688 0.529432,-1.046427 0.711994,-1.496748 h -1.222904 c -0.03651,0 -0.05477,-0.02434 -0.05477,-0.07303 0,-0.06085 0.0426,-0.157956 0.127794,-0.291836 0.09737,-0.133879 0.170392,-0.200818 0.219075,-0.200818 h 1.386946 c 0.876035,-2.105025 1.764241,-3.157538 2.664883,-3.157538 0.523081,0 0.815181,-0.0061 0.876035,-0.01826 z"
         fill="#126ba5"
         id="path142"
         style="stroke-width:0.264583" />
    </g>
  </g>
</svg>
